<?xml version="1.0" encoding="utf-8"?>
<!-- Generator: Adobe Illustrator 21.0.2, SVG Export Plug-In . SVG Version: 6.00 Build 0)  -->
<svg version="1.1" id="Layer_1" xmlns="http://www.w3.org/2000/svg" xmlns:xlink="http://www.w3.org/1999/xlink" x="0px" y="0px"
	 viewBox="0 0 161.1 93.5" style="enable-background:new 0 0 161.1 93.5;" xml:space="preserve">
<style type="text/css">
	.st0{fill:#0D499C;}
	.st1{fill:#FFC230;}
	.st2{fill:#00A651;}
	.st3{fill:#ED1C24;}
</style>
<path class="st0" d="M41.8,36c0,0.1-0.2,1.1-0.2,1.1c-0.5,1.3-1.8,5.1-1.8,5.1c-0.9,2.1-2,4.2-2.8,6.4c-0.2,0.3-1.1,2.3-1.1,2.3
	c-1,1.7-2.6,4.3-3.3,6.2c-1.2,0.9-0.9,2-1.7,3.1c-0.7,0.9-1,1.6-1.2,2.7l0.2-0.2c0.9,0.3-2,2.5-2,2.5l-0.4,0.4l-0.2,0
	c-0.1,0-0.2-0.4-0.3-0.4c-2.1,1-2,1.4-3.1,2.9c-0.5-0.3-2,1.3-2.1,1.4c-0.3,0.4-0.4,0.6-1,2.5c-0.3,1.1-0.6,0-0.4-0.4
	c-0.4-5.4,0.1-9.5,2-14.9l4-11L33.9,31c1.9-4.7,3.7-8.1,4.5-10l1.2,0.2c2.1,0.2,4.1,0.1,6.2-0.1C45.3,26.6,43.6,30.9,41.8,36"/>
<path class="st0" d="M122.7,19.9c0.5,5.1,0,10.2-1.2,15c-1.3,7.5-5.5,13.8-9.2,20.3c-0.9,3.1-3.6,5.4-4.9,8.3l-0.5,0.4
	c-0.3-0.2-0.4-0.5-0.8-0.5c-1.4,0-1.9,2.2-3.4,1.4c-0.3,0.3-0.6,0.5-0.9,0.5c-0.3-0.4,0.1-0.9,0.1-1.4c-0.8-6.2,2.3-11.2,2.9-17
	c1.3-4.5,4-8.4,5.7-12.7c2.2-4.6,3.9-9.4,6.1-14.1c0.4-0.4,0.6-1.2,1.3-1.1c0.1-0.6,0.8,0,0.9-0.7c0.5,0.1,0.7-0.9,1.2-0.3l0.4,0.3
	c0.3-0.2,0.1-0.8,0.6-0.8C121.6,18.4,122.1,19.3,122.7,19.9"/>
<path class="st0" d="M98.2,22.9c0.6,0.1,2.2,0.5,3,0.4c2.3,2.2-0.8,4.6-0.2,7c1,4-2,7.5-3.3,10.8l-4.7,12.3c0,0-1.6,3.9-0.9,2.3
	c0.6-1.4-3.4,6.5-5.6,10.7c-1.6,1-6.7,3-8.3,4.1c1.3-8.7,5.1-16.8,7.9-24.8c2.4-6.8,6.3-12.9,9.3-19.5c0.5-1.2,2.2-1.8,2.1-3.2
	C97.7,22.6,97.9,23.3,98.2,22.9"/>
<path class="st0" d="M59.9,52.5c-0.1-0.1-0.2,0.1-0.1,0.1c1.5-2.7,2.6-5.6,4-8.4l0.2,0c0.5,2.9,0.2,6.4-0.2,9.3
	c0.3,0.1,0.6,0.1,0.9,0.2c1.3,0.3,2.7,0.5,3.6,0.7l0.3,0.1c1.8,0.5,3.8,1.7,5.4,2.8c0-4.5,0.2-11.7,0.2-17.4
	c0.2-6-1.4-11.1-2.5-16.6c0-0.2-0.1-0.3-0.1-0.4l-0.5-0.2c0.1-0.7-0.8-0.8-1.2-0.6l-0.5-0.6c-0.3,0.4-0.7-0.2-1-0.2
	c-0.6-0.4-1.2,0.6-1.9,0.8c-2.1,2.7-4.7,5.7-6.4,8.5c-3.7,5.8-6.1,12-10.6,17.4l0.5,0.2l0.2,0.1c0.2,0.2,0.4,0.3,0.8,0.7l0,0.1
	c0.1,0.1,0.2,0.1,0.3,0.2c0,0,0.1,0,0.1,0c0,0,0.1,0,0.1,0.1c0.2,0.1,0.3,0.2,0.6,0.3c0.7,0.4,1.5,0.7,2.2,1
	c0.6,0.3,1.2,0.5,1.7,0.9l0.1,0c0.5,0.3,0.9,0.6,1.3,0.8c0.6,0.3,1.2,0.5,2.3,0.4L59.9,52.5z"/>
<path class="st0" d="M54.6,61.1c-0.6,1.2-2.1,2.4-2.9,3.6c-0.7-0.6-1.6-0.3-2.3,0.1c-1,0.9-1,1.2-2.1,2.5l-0.2,0.2l-0.4-0.1
	c0-0.1,0.1-0.3-0.1-0.3l-0.2,0c-1.6,1.8-2.4,3-3.3,3.2l-0.2-0.2l-1.3,2l-0.3-0.5c0.1-0.7,0-0.6,0-0.9c0.1-0.8,0.2-0.4,0-1.1
	c-0.2-0.6-0.4-1.9-1.5-1.9c-0.4,0.1-0.6-0.5-0.6-0.5c1-1.4,1.4-3.8,1.4-3.9c1.2-2.4,2.1-5.3,3.5-7.5C47.4,57.8,51.3,59.3,54.6,61.1"
	/>
<path class="st0" d="M70.3,64.7l1.4,0.2l0.4,0l0.3,0l0.3,0l0.2,0.1l0.4,0c-0.6,3.1-0.9,6.3-1.5,9.8c-0.1,0.6,0,2.2-0.6,2.6l-0.1,0.4
	c-0.4,0.4-0.6,0.5-0.8,0.8c0,0.5-0.2,0.5-0.2,0.5c-0.1,0-0.1,0-0.1,0C70,78.3,69.9,77.9,69,77l-0.1,0l-0.1,0l0,0l0,0.1l0,0.1
	c-0.4,2-0.1,4-0.4,4.9c0,0,0-0.1,0,0c0-0.1,0.1,0.1,0,0c-0.5-0.6-1.2,0.1-1.2,0.1c-0.2,0.1-0.6,0.9-0.8,1.9c-0.1,0.1-0.2-0.1-0.2,0
	c-0.6-1.7-1.5-4-1.8-5.9c-0.7-4.9-0.9-9.9-1.3-14.7l1.4,0.1l0.6,0.1l4.6,0.8L70.3,64.7z"/>
<path class="st0" d="M130.2,55.8c-1.6-0.3-2.7-0.3-3.2-0.4c-0.6-0.3-1.2-0.6-1.9-0.7l-0.2,0c-1.5-0.3-3.1-0.5-4.4-1l-0.3,0
	c4.2-6.9,9.9-13.7,13.6-21c2.1-2.4,3-6,6.1-7.3c0.8-0.4,0.9-1,1.5-1c0.1,0.5,0.8,0.5,0.8,1c0.2,0.1,0.2,0.6,0.4,0.9
	c0.2,0.2,0.2,0.4,0.5,0.3l0.8,0.9l0.6,1.1c0.4,5.3,0.6,10.8,0.6,16.3c0.1,2.6,0.6,3.7,0.6,7.8c0,1.8,0.1,2.9,0.2,4.2
	c0,0.8,0,2.8,0,2.8c-1.5-0.2-2.9-0.4-4-0.7c-0.4-0.1-0.7-0.2-1.1-0.2c-0.6-0.2-1.2-0.3-1.7-0.5l-0.3-0.1c-0.4-0.2-0.7-0.3-1.1-0.5
	c-0.9-0.4-1.6-0.8-2.4-1.1c-0.2-0.1-0.4-0.1-0.6-0.2l-0.2-7.2l-0.2,0c0.4-0.5-2.8,6.1-2.9,6.1c-0.1,0.4-0.4,0.7-0.4,0.8
	c-0.3-0.1-0.3-0.1-0.7-0.2"/>
<path class="st0" d="M116.8,62.3c0.2,0.2,0.4,0.5,0.7,0.9l0.9,0.5c1.4,0.7,3,1.2,4.1,2.4c-1.4,1.4-2.7,3-3.9,4.6
	c-1,1.3-1.8,2.8-2.8,4.1c-0.2,0.1-0.2,0.1-0.4-0.1c-1-0.2-2.2,2-2.5,1.6c-0.3-0.9-0.1-3.9,0.3-4.8c0-0.2,0.1-0.5,0-0.7
	c-0.3,0.6-1.5,0.7-1.5,0.4c0.1-1.2,0.7-3.5,1-4c-0.1,0.2,1.2-2.7,2.4-4.7l0.1-0.2l0.6-1C116.2,61.8,116.5,62,116.8,62.3"/>
<path class="st0" d="M144.4,73.4c-1-0.4-2-0.6-2.5-0.7c-0.4,0-0.4-0.1-0.7-0.2l-0.3-0.1c-0.4-0.1-0.7-0.1-1-0.2l-0.4,0
	c-1.6-0.4-2.4-0.7-4.1-1.2c0.6,1.9,0.6,4.1,0.9,5.8c0.6,3.6,1.7,9.9,1.9,9.8c0.4,1,0.5,2.3,0.5,3.6l0.2,0.3l0,3c0.3,0.2,1-0.4,1-0.4
	s0.2-0.1,0.4,0l0.2-0.1c0.2,0.1-0.2-1.4,0.6-0.7l0.1,0l1.4-1.6c1.2-1.3,1-4.5,1.3-6.9c0.8-0.9,0.8-0.4,0.8-0.4
	c0.8-0.7,0.4-1.9,0.6-2.7c0.3,0.5,0.8,0.6,0.7-0.2c0,0,0.1-4.6,0.1-4.8c-0.1-0.8-0.3-1.4-0.2-1.9L144.4,73.4z"/>
<path class="st1" d="M29.6,1.4c0.4,0,2.3,4.9,0.2,7.6l-2.1,1.9c-3.8,2.3-8.4,0.8-11.8-1.2c-0.3-0.2-0.5-0.3-0.8-0.6
	c0.1-0.6-0.3-1.3-0.3-1.9c1.6-1.1,0-3.4,1.7-4.4C16,0.9,18.3,1.1,19,0.7C21.5-0.2,26.4-0.4,29.6,1.4"/>
<path class="st1" d="M130.6,3.5c0.9,1.1,1,2.6,1.7,3.8c0,0.7,0.4,1.4-0.2,1.9c-0.4,0.3-0.4,1.4-0.7,1c-0.2-0.1-0.3,0.6-0.4,0.7
	c-0.3,0.3-0.5,1.1-0.9,0.9c-2.6,1.9-3.4,3.5-10.5,1.8c-0.1,0.2-1.5-1.6-1.6-1.5c-0.2-1.1-1.3-1.6-1-2.8c-0.5-0.5,0.4-0.9-0.4-1.3
	c-0.3-0.3,0.3-0.4,0.1-0.8l-0.4-0.4c0.3,0,0.5,0.2,0.7-0.2c-0.3-0.7,0.6-0.7,0.3-1.5c0.2-0.4,0.5-0.9,0.8-1.3c0-0.5,0.3-1,0.6-1.4
	c0.5,0,0.5-0.6,0.8-0.9c0.7-0.1,1.3-0.1,1.9,0.1C124.5,0.9,128,1.8,130.6,3.5"/>
<path class="st2" d="M60.1,52.5c-0.4,0.2-0.8,0.2-1.3,0.2c-0.2,0-0.4-0.1-0.6-0.2c-0.3-0.1-0.6-0.1-0.8-0.3c-1.8-1.4-4.2-2-6.2-3.2
	c-1.2-1.6-3-0.6-4.1-2.4c-0.6,0.7-1.1-0.5-1.8-0.2c-0.3,0.8-1.4,0.7-1.8,1.3c-0.9-0.1-2.8,0.2-3.2,1.2c0,0.3,0,0.5,0.1,0.8l0,0.2
	c0.1,0.5,0.2,0.9,0.6,1.4c-0.2,1.1,1,1.6,1,2.5c3.8,3.4,8.8,5,13.1,7.4c2.7,0.9,5.6,1.6,8.1,2.3c3.3,0.3,6.4,1.2,9.6,1.3
	c0.3,0.5,3.2-0.3,3.2-0.3c0.3-0.3,0.7-0.1,0.9-0.5c0,0,1.4-0.5,1-0.8c0,0,0.1-1.3-0.5-1.5c0,0-0.2-0.5,0.8-1.4
	c0.3-0.4,0.2-0.9,0.5-1.2c-0.1-0.5-0.6,0.1-1.1-0.2c-0.8,0.6-2.4-1-3-1.4L74,57.3c-2.6-2-5.7-3.1-9.1-3.6c-1.7-0.5-3.1-0.4-4.8-1.1
	L60.1,52.5z"/>
<path class="st2" d="M120.4,53.6c2.3,1,4.7,0.7,6.6,1.8c1.4,0,2.9,0.2,4.2,0.8c0.6-0.5,1.1,0.7,1.4-0.2c-0.2-0.5,3.1,0.2,5.1,1.4
	c4,1.9,9,1.6,13.3,3.3c1.3,0.6,2.7,0.1,3.7,1.4l0.6,0l0.2,0.1c1.2,0.2,2.4,1.3,3.5,2.1c1.3,1,2.4,3,2.3,4.1c-0.5,1.4,0,4.2,0.3,4.3
	c0.4,0.3-0.8,1.1-1.2,1.2c-0.7-0.1-1.3,0.4-2,0.1c-0.1,0-0.8,0-1,0.9l0.1,0.4c0.1,0.6-0.6,0.5-1,0.5c-5.8,0.6-11.2-2.8-16.9-3.6
	c-2.8-0.7-7.9-2.6-11.8-3.4c-0.8-0.2-0.8-0.2-5.1-2.6c-1.5-1.6-3.4-1.6-5.2-3.2c-0.7-1-2.4-1.6-2-3.2c-0.5-1,0.4-2.1,0-3.2
	c0.5-0.1,0.1-0.7,0.3-1.1C116.3,55.3,118.5,53.3,120.4,53.6c-0.1,0-0.2,0.1-0.2,0"/>
<path class="st3" d="M98.8,65.1c1.2,0.3,1.8,1.5,2.5,2.3c0,0.2-0.1,0.2-0.2,0.4c-0.3,0.6-0.5,1.6-1.2,1.9c-0.1,0.3,0.2,0.5,0.4,0.6
	c0.1,0.6-0.9,1.2,0,1.5c0.1,0.1,0,0.2,0,0.2c-0.4,0.4,0.3,0.5,0.2,1.1c-0.1,0.1-0.2,0.1-0.3,0.1c-1.7,0.8-3.2,2.7-5.3,2.5
	c-3.2,0-6.5,0.1-9.6,0.8c-2,0.4-4.3,0-6.1,0.6c-1.7,0.6-2.1-1.8-3.6-2c-0.1-0.4-0.1-0.8,0-1.3c-0.2-0.2-0.3-0.5-0.2-0.8l0.4-0.4
	c0,0,0,0,0.2-0.3c0.1,0.2,0.2-0.1,0.4-0.1c0.3-0.3-0.3-1.2,0.6-0.9c1.7-1.4,3.5-2.3,5.4-3.3c1-0.5,2-1.1,3-1.7
	c2.9-1.4,6-1.6,9.2-1.9C95.9,64.2,97.3,65.1,98.8,65.1"/>
<path class="st3" d="M63.7,11c0.4,0.2,0.9,0.2,1.3,0.6c-0.1,0.7-1.7,1-1.2,1.8c0.1,0.8-0.9,1.2-0.9,1.9c-0.3,0.1-0.3,0.4-0.3,0.8
	c0.1,0-0.5,0.3-1,0.7l0.2,0.2c-0.2,0.6-1.5,0.1-1,1c0,0.5-1.4,0.5-2.3,1.3c-2.8,0.8-6,0.8-8.8,1.5c0,0-3.3,0.3-3.3,0.4
	c-3.9,0.2-7.2,0.6-10.6-0.9c-1.9,0-3.2-0.3-5-0.7c-2-1.1-2.1-3.5-1.8-5.3l-0.4-0.6c0.3-0.9,1.8-0.7,2-0.7c0,0,4.3-1.8,6.7-2.1
	l0.4-0.1c6.6-1.4,13.5-0.3,20.1-1.3C59.8,9.7,62.3,9.3,63.7,11"/>
<path class="st0" d="M3.1,70.9c-0.2,0.1-0.2,0.2-0.5,0.3c-0.3,0-0.4,0.1-0.5,0.2C2,71.5,2,71.4,1.8,71.5c-0.2,0.1-0.2,0.4-0.2,0.6
	c0,0.1,0.2,0.2,0.2,0.3c0,0.2-0.2,0.7-0.6,0.7l-0.1,0c-0.7-0.1-0.3,1.3-1.1,1.2c-0.3-3,0.2-6.1,0.3-9.2C1.2,54.7,4.3,45.1,8,36
	l7.3-14.7c1.4-2.6,2.4-5.9,5.6-7.1c2,0.1,2.9,2,4.3,3.4c0.6,1.7,1,3.6,1,5.5c-1,6.4-4.2,11.9-6.7,17.6c-2.3,5.3-7.4,16.2-7.4,16.2
	l-1.6,5c-0.1-0.1-0.2-0.5-0.4-0.2c-0.9,0.8-1.6,0.9-1.9,0.7c-0.6,0.6-0.4,2.1-1.5,2.1l-1,1.7l-0.1,0l0,0c-1,1.2-0.8,3-2,4.1
	c0.1,0.5-0.1,0.4-0.4,0.5L3.1,70.9z"/>
</svg>
