<?xml version="1.0" encoding="utf-8"?>
<!-- Generator: Adobe Illustrator 21.0.2, SVG Export Plug-In . SVG Version: 6.00 Build 0)  -->
<svg version="1.1" id="Layer_1" xmlns="http://www.w3.org/2000/svg" xmlns:xlink="http://www.w3.org/1999/xlink" x="0px" y="0px"
	 viewBox="0 0 161.8 93.5" style="enable-background:new 0 0 161.8 93.5;" xml:space="preserve">
<style type="text/css">
	.st0{fill:#FFFFFF;}
</style>
<g>
	<path class="st0" d="M41.7,37.1c0,0,0.2-1,0.2-1.1c1.8-5.1,3.5-9.3,4-14.8c0.2,0,0.4,0,0.6,0c0-0.1,3.3-0.4,3.3-0.4
		c2.8-0.7,6-0.7,8.8-1.5c0.9-0.8,2.3-0.8,2.3-1.3c-0.5-0.9,0.8-0.4,1-1l-0.2-0.2c0.5-0.4,1.1-0.7,1-0.7c0-0.4,0-0.7,0.3-0.8
		c0-0.7,1-1.1,0.9-1.9c-0.5-0.8,1.1-1.1,1.2-1.8c-0.4-0.4-0.9-0.4-1.3-0.6c-1.4-1.7-3.9-1.3-5.9-1.5c-6.6,1-13.5-0.1-20.1,1.3
		l-0.4,0.1C35,11.2,30.7,13,30.7,13c-0.2,0-1.7-0.2-2,0.7l0.4,0.6c-0.3,1.8-0.2,4.2,1.8,5.3c1.8,0.4,3.1,0.7,5,0.7
		c0.9,0.4,1.7,0.6,2.6,0.8C37.6,23,35.9,26.3,34,31l-7.5,14.7l-4,11c-1.9,5.4-2.4,9.5-2,14.9c-0.2,0.4,0.1,1.5,0.4,0.4
		c0.6-1.9,0.7-2.1,1-2.5c0.1-0.1,1.6-1.7,2.1-1.4c1.1-1.5,1-1.9,3.1-2.9c0.1,0,0.2,0.4,0.3,0.4h0.2l0.4-0.4c0,0,2.9-2.2,2-2.5
		l-0.2,0.2c0.2-1.1,0.5-1.8,1.2-2.7c0.8-1.1,0.5-2.2,1.7-3.1c0.7-1.9,2.3-4.5,3.3-6.2c0,0,0.9-2,1.1-2.3c0.8-2.2,1.9-4.3,2.8-6.4
		C39.9,42.2,41.2,38.4,41.7,37.1z"/>
	<path class="st0" d="M121.6,34.9c1.2-4.8,1.7-9.9,1.2-15c-0.6-0.6-1.1-1.5-1.7-2.4c-0.5,0-0.3,0.6-0.6,0.8l-0.4-0.3
		c-0.5-0.6-0.7,0.4-1.2,0.3c-0.1,0.7-0.8,0.1-0.9,0.7c-0.7-0.1-0.9,0.7-1.3,1.1c-2.2,4.7-3.9,9.5-6.1,14.1
		c-1.7,4.3-4.4,8.2-5.7,12.7c-0.6,5.8-3.7,10.8-2.9,17c0,0.5-0.4,1-0.1,1.4c0.3,0,0.6-0.2,0.9-0.5c1.5,0.8,2-1.4,3.4-1.4
		c0.4,0,0.5,0.3,0.8,0.5l0.5-0.4c1.3-2.9,4-5.2,4.9-8.3C116.1,48.7,120.3,42.4,121.6,34.9z"/>
	<path class="st0" d="M92.2,55.7C92.3,55.5,92.3,55.5,92.2,55.7C92,56.1,91.9,56.3,92.2,55.7z"/>
	<path class="st0" d="M16,9.7c3.4,2,8,3.5,11.8,1.2L29.9,9c2.1-2.7,0.2-7.6-0.2-7.6c-3.2-1.8-8.1-1.6-10.6-0.7
		c-0.7,0.4-3,0.2-2.5,2.1c-1.7,1-0.1,3.3-1.7,4.4c0,0.6,0.4,1.3,0.3,1.9C15.5,9.4,15.7,9.5,16,9.7z"/>
	<path class="st0" d="M116.7,8c0.8,0.4-0.1,0.8,0.4,1.3c-0.3,1.2,0.8,1.7,1,2.8c0.1-0.1,1.5,1.7,1.6,1.5c7.1,1.7,7.9,0.1,10.5-1.8
		c0.4,0.2,0.6-0.6,0.9-0.9c0.1-0.1,0.2-0.8,0.4-0.7c0.3,0.4,0.3-0.7,0.7-1c0.6-0.5,0.2-1.2,0.2-1.9c-0.7-1.2-0.8-2.7-1.7-3.8
		c-2.6-1.7-6.1-2.6-9.2-1.9c-0.6-0.2-1.2-0.2-1.9-0.1c-0.3,0.3-0.3,0.9-0.8,0.9c-0.3,0.4-0.6,0.9-0.6,1.4c-0.3,0.4-0.6,0.9-0.8,1.3
		c0.3,0.8-0.6,0.8-0.3,1.5c-0.2,0.4-0.4,0.2-0.7,0.2l0.4,0.4C117,7.6,116.4,7.7,116.7,8z"/>
	<path class="st0" d="M68.5,82.1C68.6,82.2,68.5,82,68.5,82.1L68.5,82.1z"/>
	<path class="st0" d="M76.1,64.5c0.3-0.3,0.7-0.1,0.9-0.5c0,0,1.4-0.5,1-0.8c0,0,0.1-1.3-0.5-1.5c0,0-0.2-0.5,0.8-1.4
		c0.3-0.4,0.2-0.9,0.5-1.2c-0.1-0.5-0.6,0.1-1.1-0.2c-0.8,0.6-2.4-1-3-1.4l-0.6-0.2c0-4.5,0.2-11.7,0.2-17.4
		c0.2-6-1.4-11.1-2.5-16.6c0-0.2-0.1-0.3-0.1-0.4l-0.5-0.2c0.1-0.7-0.8-0.8-1.2-0.6l-0.5-0.6c-0.3,0.4-0.7-0.2-1-0.2
		c-0.6-0.4-1.2,0.6-1.9,0.8c-2.1,2.7-4.7,5.7-6.4,8.5c-3.7,5.8-6.1,12-10.6,17.4c-0.9-0.2-1.8-0.3-2.4-1.4c-0.6,0.7-1.1-0.5-1.8-0.2
		c-0.3,0.8-1.4,0.7-1.8,1.3c-0.9-0.1-2.8,0.2-3.2,1.2c0,0.3,0,0.5,0.1,0.8v0.2c0.1,0.5,0.2,0.9,0.6,1.4c-0.2,1.1,1,1.6,1,2.5
		c0.8,0.7,1.6,1.3,2.4,1.8c-0.1,0-0.1-0.1-0.2-0.1c-1.4,2.2-2.4,5.4-3.6,7.8c0,0.1-0.4,2.5-1.4,3.9c0,0,0.2,0.6,0.6,0.5
		c1.1,0,1.3,1.3,1.5,1.9c0.2,0.7,0.1,0.3,0,1.1c0,0.3,0.1,0.2,0,0.9l0.3,0.5l1.3-2l0.2,0.2c0.9-0.2,1.7-1.4,3.3-3.2h0.2
		c0.2,0,0.1,0.2,0.1,0.3l0.4,0.1l0.2-0.2c1.1-1.3,1.1-1.6,2.1-2.5c0.7-0.4,1.6-0.7,2.3-0.1c0.8-1.1,2.3-2.5,3-3.7
		c0.1,0.1,0.3,0.1,0.4,0.2c2.7,0.9,5.6,1.6,8.1,2.3c0.1,0-0.1,0-0.1,0c0.4,4.8,0.6,9.8,1.3,14.7c0.3,1.9,1.2,4.2,1.8,5.9
		c0-0.1,0.1,0.1,0.2,0c0.2-1,0.6-1.8,0.8-1.9c0,0,0.7-0.7,1.2-0.1c0.3-0.9,0-2.9,0.4-4.9v-0.1V77H69h0.1c0.9,0.9,1,1.3,1,2.1
		c0,0,0,0,0.1,0c0,0,0.2,0,0.2-0.5c0.2-0.3,0.4-0.4,0.8-0.8l0.1-0.4c0.6-0.4,0.5-2,0.6-2.6c0.6-3.5,0.9-6.7,1.5-9.8l0,0
		C74.3,65,76.1,64.5,76.1,64.5z M63.9,53.4c-1.2-0.2-2.4-0.3-3.7-0.8v-0.1c-0.1,0-0.2,0.1-0.3,0.1l0.1-0.1c0,0,0,0,0,0
		c1.5-2.7,2.6-5.5,3.9-8.3h0.2C64.6,47.1,64.3,50.5,63.9,53.4z"/>
	<path class="st0" d="M161.7,72.7c-0.3-0.1-0.8-2.9-0.3-4.3c0.1-1.1-1-3.1-2.3-4.1c-1.1-0.8-2.3-1.9-3.5-2.1l-0.2-0.1h-0.6
		c-1-1.3-2.4-0.8-3.7-1.4c-1.6-0.6-3.4-1-5.1-1.3c0-0.6,0-1.9,0-2.5c-0.1-1.3-0.2-2.4-0.2-4.2c0-4.1-0.5-5.2-0.6-7.8
		c0-5.5-0.2-11-0.6-16.3l-0.6-1.1l-0.8-0.9c-0.3,0.1-0.3-0.1-0.5-0.3c-0.2-0.3-0.2-0.8-0.4-0.9c0-0.5-0.7-0.5-0.8-1
		c-0.6,0-0.7,0.6-1.5,1c-3.1,1.3-4,4.9-6.1,7.3c-3.7,7.3-9.3,14-13.5,20.9c-1.9-0.2-4,1.7-4.5,1.9c-0.2,0.4,0.2,1-0.3,1.1
		c0.4,1.1-0.5,2.2,0,3.2c-0.2,0.7,0,1.1,0.4,1.5c0,0,0,0-0.1,0l-0.6,1l-0.1,0.2c-1.2,2-2.5,4.9-2.4,4.7c-0.3,0.5-0.9,2.8-1,4
		c0,0.3,1.2,0.2,1.5-0.4c0.1,0.2,0,0.5,0,0.7c-0.4,0.9-0.6,3.9-0.3,4.8c0.3,0.4,1.5-1.8,2.5-1.6c0.2,0.2,0.2,0.2,0.4,0.1
		c1-1.3,1.8-2.8,2.8-4.1c1.2-1.6,2.5-3.2,3.9-4.6c-0.1-0.2,0-0.1,0.2,0.1c4.3,2.4,4.3,2.4,5.1,2.6c2.6,0.5,7.8,2.3,7.6,2.2
		c0.6,1.9,0.6,4.1,0.9,5.8c0.6,3.6,1.7,9.9,1.9,9.8c0.4,1,0.5,2.3,0.5,3.6l0.2,0.3v3c0.3,0.2,1-0.4,1-0.4s0.2-0.1,0.4,0l0.2-0.1
		c0.2,0.1-0.2-1.4,0.6-0.7h0.1l1.4-1.6c1.2-1.3,1-4.5,1.3-6.9c0.8-0.9,0.8-0.4,0.8-0.4c0.8-0.7,0.4-1.9,0.6-2.7
		c0.3,0.5,0.8,0.6,0.7-0.2c0,0,0.1-4.6,0.1-4.8c-0.1-0.8-0.3-1.4-0.2-1.9c3.5,1.1,7,2.3,10.6,2c0.4,0,1.1,0.1,1-0.5l-0.1-0.4
		c0.2-0.9,0.9-0.9,1-0.9c0.7,0.3,1.3-0.2,2-0.1C160.9,73.8,162.1,73,161.7,72.7z M130,55.7c0.1,0,0.2,0,0.3,0l0,0
		C130.2,55.8,130.1,55.8,130,55.7z M132.7,56c-0.3,0.9-0.8-0.3-1.4,0.2c-0.2-0.1-0.4-0.1-0.6-0.2c0.1,0,0.2,0.1,0.4,0.1
		c0-0.1,0.3-0.4,0.4-0.8c0.1,0,2.9-5.7,2.9-6.1h0.2l0.2,7C133.6,55.8,132.6,55.7,132.7,56z"/>
	<path class="st0" d="M98.9,65.1c-1.5,0-2.9-0.9-4.2-0.7c-2.7,0.3-5.3,0.4-7.7,1.3c1.9-3.7,4.8-9.3,5.2-10.1
		c0.3-0.8,0.9-2.2,0.9-2.2l4.7-12.3c1.3-3.3,4.3-6.8,3.3-10.8c-0.6-2.4,2.5-4.8,0.2-7c-0.8,0.1-2.4-0.3-3-0.4
		c-0.3,0.4-0.5-0.3-0.7,0.1c0.1,1.4-1.6,2-2.1,3.2c-3,6.6-6.9,12.7-9.3,19.5c-2.8,8-6.6,16-7.9,24.7c-0.4,0.3-0.8,0.6-1.2,0.9
		c-0.9-0.3-0.3,0.6-0.6,0.9c-0.2,0-0.3,0.3-0.4,0.1c-0.2,0.3-0.2,0.3-0.2,0.3L75.5,73c-0.1,0.3,0,0.6,0.2,0.8
		c-0.1,0.5-0.1,0.9,0,1.3c1.5,0.2,1.9,2.6,3.6,2c1.8-0.6,4.1-0.2,6.1-0.6c3.1-0.7,6.4-0.8,9.6-0.8c2.1,0.2,3.6-1.7,5.3-2.5
		c0.1,0,0.2,0,0.3-0.1c0.1-0.6-0.6-0.7-0.2-1.1c0,0,0.1-0.1,0-0.2c-0.9-0.3,0.1-0.9,0-1.5c-0.2-0.1-0.5-0.3-0.4-0.6
		c0.7-0.3,0.9-1.3,1.2-1.9c0.1-0.2,0.2-0.2,0.2-0.4C100.7,66.6,100.1,65.4,98.9,65.1z"/>
	<path class="st0" d="M25.3,17.6c-1.4-1.4-2.3-3.3-4.3-3.4c-3.2,1.2-4.2,4.5-5.6,7.1L8.1,36c-3.7,9.1-6.8,18.7-7.7,29.1
		c-0.1,3.1-0.6,6.2-0.3,9.2c0.8,0.1,0.4-1.3,1.1-1.2h0.1c0.4,0,0.6-0.5,0.6-0.7c0-0.1-0.2-0.2-0.2-0.3c0-0.2,0-0.5,0.2-0.6
		c0.2-0.1,0.2,0,0.3-0.1c0.1-0.1,0.2-0.2,0.5-0.2C3,71.1,3,71,3.2,70.9l0.1-0.1c0.3-0.1,0.5,0,0.4-0.5c1.2-1.1,1-2.9,2-4.1h0.1
		l1-1.7c1.1,0,0.9-1.5,1.5-2.1c0.3,0.2,1,0.1,1.9-0.7c0.2-0.3,0.3,0.1,0.4,0.2l1.6-5c0,0,5.1-10.9,7.4-16.2
		c2.5-5.7,5.7-11.2,6.7-17.6C26.3,21.2,25.9,19.3,25.3,17.6z"/>
</g>
</svg>
