<?xml version="1.0" encoding="utf-8"?>
<!-- Generator: Adobe Illustrator 21.0.2, SVG Export Plug-In . SVG Version: 6.00 Build 0)  -->
<svg version="1.1" id="Layer_1" xmlns="http://www.w3.org/2000/svg" xmlns:xlink="http://www.w3.org/1999/xlink" x="0px" y="0px"
	 viewBox="0 0 158.3 98.6" style="enable-background:new 0 0 158.3 98.6;" xml:space="preserve">
<style type="text/css">
	.st0{opacity:0.8;}
	.st1{fill:#FFFFFF;}
	.st2{fill:#0C499B;}
	.st3{fill:#FFC130;}
	.st4{fill:#00A551;}
	.st5{fill:#EC1C24;}
</style>
<g>
	<g class="st0">
		<path class="st1" d="M79.2,98.6c43.7,0,79.2-22.1,79.2-49.3C158.3,22.1,122.9,0,79.2,0S0,22.1,0,49.3C0,76.5,35.4,98.6,79.2,98.6"
			/>
	</g>
	<g>
		<path class="st2" d="M55,39.6c0,0.1-0.2,0.8-0.1,0.8c-0.3,0.9-1.3,3.5-1.3,3.5c-0.6,1.5-1.4,3-1.9,4.5C51.6,48.6,51,50,51,50
			c-0.7,1.2-1.8,3-2.3,4.3c-0.8,0.6-0.7,1.4-1.2,2.2c-0.5,0.6-0.7,1.1-0.8,1.9l0.2-0.1c0.6,0.2-1.4,1.8-1.4,1.8l-0.3,0.3l-0.1,0
			c-0.1,0-0.1-0.2-0.2-0.3c-1.5,0.7-1.4,1-2.2,2c-0.4-0.2-1.4,0.9-1.5,1c-0.2,0.3-0.2,0.4-0.7,1.7c-0.2,0.7-0.4,0-0.3-0.3
			c-0.3-3.7,0.1-6.7,1.4-10.5l2.7-7.7l5.2-10.2c1.3-3.3,2.6-5.6,3.1-7l0.8,0.1c1.4,0.1,2.8,0,4.3-0.1C57.5,33,56.3,36,55,39.6"/>
		<path class="st2" d="M111.2,28.3c0.4,3.6,0,7.2-0.8,10.5c-0.9,5.2-3.8,9.7-6.4,14.2c-0.6,2.2-2.5,3.8-3.4,5.8l-0.3,0.3
			c-0.2-0.1-0.3-0.3-0.5-0.3c-1,0-1.3,1.5-2.4,0.9c-0.2,0.2-0.4,0.4-0.7,0.4c-0.2-0.3,0.1-0.7,0.1-1c-0.5-4.3,1.6-7.8,2-11.9
			c0.9-3.1,2.8-5.8,4-8.9c1.5-3.3,2.7-6.6,4.2-9.8c0.3-0.3,0.4-0.8,0.9-0.8c0-0.4,0.6,0,0.6-0.5c0.3,0,0.5-0.6,0.8-0.2l0.3,0.2
			c0.2-0.1,0.1-0.5,0.4-0.5C110.4,27.2,110.8,27.9,111.2,28.3"/>
		<path class="st2" d="M94.2,30.4c0.4,0.1,1.5,0.4,2,0.3c1.6,1.6-0.5,3.2-0.1,4.9c0.7,2.8-1.4,5.2-2.3,7.5l-3.3,8.6
			c0,0-1.1,2.7-0.7,1.6c0.4-1-2.4,4.5-3.9,7.5c-1.1,0.7-4.6,2.1-5.7,2.9c0.9-6.1,3.5-11.7,5.5-17.4c1.7-4.7,4.4-9.1,6.4-13.6
			c0.3-0.9,1.5-1.3,1.4-2.3C93.8,30.2,94,30.7,94.2,30.4"/>
		<path class="st2" d="M67.6,51.1C67.5,51.1,67.5,51.2,67.6,51.1c1-1.8,1.7-3.9,2.7-5.8l0.1,0c0.4,2,0.1,4.5-0.1,6.5
			c0.2,0,0.4,0.1,0.6,0.1c0.9,0.2,1.9,0.3,2.5,0.5l0.2,0.1c1.2,0.3,2.6,1.2,3.7,1.9c0-3.2,0.1-8.2,0.1-12.2c0.1-4.2-1-7.8-1.7-11.6
			c0-0.1,0-0.2-0.1-0.3l-0.3-0.2c0-0.5-0.6-0.5-0.9-0.4l-0.4-0.4c-0.2,0.3-0.5-0.1-0.7-0.2c-0.4-0.3-0.8,0.4-1.3,0.6
			c-1.5,1.9-3.2,4-4.4,6c-2.6,4-4.2,8.4-7.3,12.2l0.3,0.1l0.2,0.1c0.1,0.1,0.3,0.2,0.5,0.5l0,0c0.1,0,0.1,0.1,0.2,0.1c0,0,0,0,0.1,0
			c0,0,0.1,0,0.1,0.1c0.1,0.1,0.2,0.1,0.4,0.2c0.5,0.3,1,0.5,1.5,0.7c0.4,0.2,0.8,0.4,1.2,0.6l0.1,0c0.4,0.2,0.6,0.4,0.9,0.6
			c0.4,0.2,0.9,0.4,1.6,0.3L67.6,51.1z"/>
		<path class="st2" d="M64,57.2c-0.4,0.9-1.5,1.7-2,2.5c-0.5-0.4-1.1-0.2-1.6,0.1c-0.7,0.6-0.7,0.9-1.5,1.7l-0.1,0.1l-0.3,0
			c0-0.1,0-0.2-0.1-0.2l-0.2,0c-1.1,1.3-1.7,2.1-2.3,2.3l-0.1-0.1l-0.9,1.4l-0.2-0.3c0.1-0.5,0-0.4,0-0.6c0.1-0.6,0.2-0.3,0-0.8
			c-0.2-0.4-0.3-1.3-1.1-1.3c-0.3,0-0.4-0.4-0.4-0.4c0.7-1,1-2.7,1-2.8c0.8-1.7,1.4-3.7,2.5-5.3C59,54.9,61.6,55.9,64,57.2"/>
		<path class="st2" d="M74.9,59.7l1,0.1l0.2,0l0.2,0l0.2,0l0.2,0.1l0.2,0c-0.4,2.1-0.7,4.4-1,6.8c-0.1,0.4,0,1.5-0.4,1.8l0,0.3
			c-0.3,0.3-0.4,0.4-0.5,0.6c0,0.4-0.1,0.3-0.1,0.3c0,0,0,0,0,0c0-0.6-0.2-0.9-0.7-1.5h-0.1l0,0l0,0l0,0.1l0,0.1
			c-0.3,1.4-0.1,2.8-0.3,3.4c0,0,0-0.1,0,0c0,0,0,0.1,0,0c-0.4-0.4-0.9,0.1-0.9,0.1c-0.1,0.1-0.4,0.6-0.6,1.3c0,0.1-0.1-0.1-0.1,0
			c-0.4-1.2-1-2.8-1.2-4.1c-0.5-3.4-0.6-6.9-0.9-10.3l1,0.1l0.4,0.1l3.2,0.6L74.9,59.7z"/>
		<path class="st2" d="M116.4,53.4c-1.1-0.2-1.9-0.2-2.2-0.3c-0.4-0.2-0.9-0.4-1.3-0.5l-0.1,0c-1.1-0.2-2.1-0.3-3-0.7l-0.2,0
			c2.9-4.9,6.9-9.6,9.5-14.7c1.5-1.7,2.1-4.2,4.3-5.1c0.6-0.3,0.6-0.7,1-0.7c0.1,0.3,0.6,0.3,0.5,0.7c0.2,0.1,0.1,0.4,0.3,0.6
			c0.1,0.1,0.1,0.3,0.4,0.2l0.6,0.6l0.4,0.8c0.3,3.7,0.4,7.5,0.4,11.4c0.1,1.8,0.4,2.6,0.4,5.4c0,1.3,0.1,2,0.1,2.9c0,0.6,0,2,0,1.9
			c-1.1-0.2-2-0.3-2.8-0.5c-0.2-0.1-0.5-0.1-0.7-0.2c-0.4-0.1-0.8-0.2-1.2-0.3l-0.2-0.1c-0.3-0.1-0.5-0.2-0.7-0.3
			c-0.6-0.3-1.1-0.6-1.7-0.8c-0.1,0-0.3-0.1-0.4-0.1l-0.2-5h-0.1c0.2-0.3-2,4.3-2,4.3c-0.1,0.3-0.3,0.5-0.3,0.6
			C116.8,53.6,116.7,53.6,116.4,53.4"/>
		<path class="st2" d="M107.1,58c0.1,0.1,0.3,0.3,0.5,0.6l0.6,0.4c1,0.5,2.1,0.9,2.8,1.7c-0.9,1-1.9,2.1-2.7,3.2
			c-0.7,0.9-1.3,2-1.9,2.8c-0.1,0.1-0.2,0.1-0.3-0.1c-0.7-0.2-1.5,1.4-1.7,1.1c-0.2-0.6-0.1-2.8,0.2-3.3c0-0.2,0.1-0.4,0-0.5
			c-0.2,0.4-1.1,0.5-1,0.3c0.1-0.8,0.5-2.5,0.7-2.8c0,0.1,0.8-1.9,1.7-3.3L106,58l0.4-0.7C106.7,57.6,106.9,57.8,107.1,58"/>
		<path class="st2" d="M126.2,65.8c-0.7-0.3-1.4-0.4-1.7-0.5c-0.3,0-0.2-0.1-0.5-0.1l-0.2,0c-0.3-0.1-0.5-0.1-0.7-0.1l-0.3,0
			c-1.1-0.3-1.7-0.5-2.9-0.8c0.4,1.3,0.4,2.8,0.6,4.1c0.4,2.5,1.2,7,1.3,6.8c0.3,0.7,0.3,1.6,0.4,2.5l0.2,0.2l0,2.1
			c0.2,0.1,0.7-0.3,0.7-0.3s0.2-0.1,0.3,0l0.2,0c0.1,0.1-0.1-1,0.4-0.5l0.1,0l1-1.1c0.8-0.9,0.7-3.2,0.9-4.8
			c0.6-0.6,0.5-0.3,0.5-0.3c0.5-0.5,0.3-1.3,0.4-1.9c0.2,0.4,0.6,0.4,0.5-0.2c0,0,0.1-3.2,0.1-3.3c-0.1-0.6-0.2-0.9-0.1-1.3
			L126.2,65.8z"/>
		<path class="st3" d="M46.6,15.3c0.3,0,1.6,3.5,0.1,5.3L45.3,22c-2.6,1.6-5.9,0.5-8.2-0.8c-0.2-0.1-0.4-0.2-0.5-0.4
			c0-0.4-0.2-0.9-0.2-1.4c1.1-0.8,0-2.4,1.2-3.1c-0.4-1.3,1.2-1.2,1.7-1.5C41,14.2,44.4,14.1,46.6,15.3"/>
		<path class="st3" d="M116.7,16.8c0.6,0.8,0.7,1.8,1.2,2.7c0,0.5,0.3,1-0.1,1.4c-0.3,0.2-0.3,0.9-0.5,0.7c-0.1-0.1-0.2,0.5-0.2,0.5
			c-0.2,0.2-0.3,0.8-0.7,0.7c-1.8,1.3-2.4,2.5-7.3,1.2c-0.1,0.1-1-1.1-1.1-1.1c-0.2-0.8-0.9-1.1-0.7-1.9c-0.3-0.3,0.3-0.7-0.3-0.9
			c-0.2-0.2,0.2-0.3,0-0.5l-0.3-0.3c0.2,0,0.4,0.1,0.5-0.1c-0.2-0.5,0.5-0.5,0.2-1c0.2-0.3,0.3-0.6,0.5-0.9c0-0.4,0.2-0.7,0.4-1
			c0.3,0,0.4-0.4,0.5-0.6c0.5,0,0.9-0.1,1.3,0.1C112.4,15,114.9,15.6,116.7,16.8"/>
		<path class="st4" d="M67.8,51.2c-0.3,0.1-0.6,0.2-0.9,0.1c-0.2,0-0.3-0.1-0.4-0.1c-0.2-0.1-0.4-0.1-0.6-0.2
			c-1.2-1-2.9-1.4-4.3-2.3c-0.8-1.1-2-0.4-2.8-1.7c-0.4,0.5-0.8-0.3-1.2-0.1c-0.2,0.5-0.9,0.5-1.2,0.9c-0.6-0.1-1.9,0.2-2.2,0.9
			c0,0.2,0,0.4,0,0.5l0,0.2c0,0.4,0.2,0.6,0.4,1c-0.1,0.7,0.7,1.2,0.7,1.8c2.6,2.4,6.1,3.5,9.1,5.2c1.8,0.6,3.9,1.1,5.6,1.6
			c2.3,0.2,4.4,0.8,6.6,0.9c0.2,0.3,2.2-0.2,2.2-0.2c0.2-0.2,0.5,0,0.6-0.4c0,0,1-0.4,0.7-0.6c0,0,0.1-0.9-0.3-1.1
			c0,0-0.1-0.4,0.6-1c0.2-0.3,0.1-0.6,0.3-0.8c0-0.4-0.4,0.1-0.8-0.1c-0.6,0.4-1.7-0.7-2.1-1l-0.3-0.2c-1.8-1.4-3.9-2.2-6.3-2.5
			C69.9,51.7,68.9,51.7,67.8,51.2L67.8,51.2z"/>
		<path class="st4" d="M109.6,51.9c1.6,0.7,3.3,0.5,4.6,1.2c1,0,2,0.1,2.9,0.6c0.4-0.4,0.8,0.5,1-0.1c-0.1-0.3,2.1,0.1,3.5,1
			c2.8,1.4,6.2,1.1,9.2,2.3c0.9,0.4,1.9,0.1,2.6,1l0.4,0l0.1,0c0.8,0.2,1.7,0.9,2.4,1.5c0.9,0.7,1.7,2.1,1.6,2.9c-0.4,1,0,2.9,0.2,3
			c0.3,0.2-0.6,0.8-0.9,0.8c-0.5,0-0.9,0.3-1.4,0.1c-0.1,0-0.5,0-0.7,0.6l0.1,0.3c0,0.5-0.4,0.4-0.7,0.4c-4,0.4-7.8-2-11.7-2.5
			c-1.9-0.5-5.5-1.8-8.2-2.4c-0.5-0.1-0.6-0.1-3.5-1.8c-1-1.1-2.4-1.2-3.6-2.2c-0.5-0.7-1.7-1.1-1.4-2.3c-0.4-0.7,0.3-1.5,0-2.2
			c0.3-0.1,0.1-0.5,0.2-0.7C106.8,53.1,108.3,51.7,109.6,51.9c0,0-0.1,0.1-0.1,0"/>
		<path class="st5" d="M94.6,59.9c0.8,0.2,1.2,1,1.7,1.6c0,0.2-0.1,0.1-0.2,0.2c-0.2,0.4-0.3,1.1-0.9,1.4c-0.1,0.2,0.2,0.3,0.3,0.4
			c0.1,0.4-0.7,0.8,0,1.1c0,0,0,0.1,0,0.2c-0.2,0.3,0.2,0.4,0.2,0.8c-0.1,0.1-0.1,0.1-0.2,0.1c-1.2,0.6-2.2,1.9-3.7,1.8
			c-2.2,0-4.5,0.1-6.6,0.5c-1.4,0.3-3,0-4.2,0.4c-1.2,0.4-1.5-1.2-2.5-1.4c0-0.3,0-0.6,0-0.9c-0.1-0.2-0.2-0.4-0.2-0.6l0.3-0.3
			c0,0,0,0,0.1-0.2c0.1,0.2,0.2-0.1,0.3,0c0.2-0.2-0.2-0.8,0.4-0.7c1.2-1,2.5-1.6,3.8-2.3c0.7-0.4,1.4-0.7,2.1-1.2
			c2-1,4.1-1.1,6.4-1.4C92.6,59.3,93.6,60,94.6,59.9"/>
		<path class="st5" d="M70.3,22.1c0.3,0.2,0.6,0.1,0.9,0.4c-0.1,0.5-1.2,0.7-0.8,1.2c0.1,0.6-0.6,0.9-0.6,1.3
			c-0.2,0-0.2,0.3-0.2,0.5c0.1,0-0.4,0.2-0.7,0.5l0.1,0.2c-0.2,0.4-1.1,0.1-0.7,0.7c0,0.4-0.9,0.4-1.6,0.9c-1.9,0.6-4.2,0.5-6.1,1.1
			c0,0-2.3,0.2-2.3,0.2c-2.7,0.2-5,0.4-7.4-0.6c-1.3,0-2.2-0.2-3.5-0.5c-1.4-0.8-1.4-2.4-1.3-3.7L45.8,24c0.2-0.7,1.3-0.5,1.4-0.5
			c0,0,3-1.3,4.6-1.5l0.3,0c4.6-1,9.3-0.2,14-0.9C67.6,21.2,69.3,20.9,70.3,22.1"/>
		<path class="st2" d="M28.2,64.1c-0.1,0-0.1,0.2-0.3,0.2c-0.2,0-0.3,0.1-0.3,0.2c-0.1,0.1-0.1,0-0.2,0.1c-0.1,0.1-0.1,0.3-0.1,0.4
			c0,0.1,0.1,0.1,0.1,0.2c0,0.2-0.2,0.5-0.4,0.5l-0.1,0c-0.5-0.1-0.2,0.9-0.7,0.9c-0.2-2.1,0.1-4.3,0.2-6.4
			c0.5-7.3,2.7-14.1,5.3-20.4l5.1-10.3c1-1.8,1.7-4.1,3.9-4.9c1.4,0.1,2,1.4,3,2.4c0.4,1.2,0.7,2.5,0.7,3.9
			c-0.7,4.5-2.9,8.3-4.7,12.3c-1.6,3.7-5.1,11.4-5.1,11.4l-1.1,3.5c0-0.1-0.1-0.3-0.3-0.2c-0.6,0.6-1.1,0.6-1.3,0.5
			c-0.4,0.4-0.3,1.5-1,1.5L30,60.8l-0.1,0l0,0c-0.7,0.9-0.6,2.1-1.4,2.9C28.6,64.1,28.5,64,28.2,64.1L28.2,64.1z"/>
	</g>
</g>
</svg>
