<?xml version="1.0" encoding="utf-8"?>
<!-- Generator: Adobe Illustrator 21.0.2, SVG Export Plug-In . SVG Version: 6.00 Build 0)  -->
<svg version="1.1" id="Layer_1" xmlns="http://www.w3.org/2000/svg" xmlns:xlink="http://www.w3.org/1999/xlink" x="0px" y="0px"
	 viewBox="0 0 225.5 228.1" style="enable-background:new 0 0 225.5 228.1;" xml:space="preserve">
<style type="text/css">
	.st0{fill:none;stroke:#231F20;stroke-miterlimit:10;}
</style>
<g>
	<polygon class="st0" points="112.4,0.8 141.5,34.2 185.3,27.3 186.1,71.6 224.1,94.5 196.2,128.9 210.6,170.8 167.1,179.3 
		151.2,220.7 112.4,199.2 73.6,220.7 57.8,179.3 14.2,170.8 28.7,128.9 0.8,94.5 38.8,71.6 39.5,27.3 83.3,34.2 	"/>
	<polygon class="st0" points="77,6.6 115.3,28.9 154.6,8.3 169.6,50 212.9,59.4 197.6,101 224.7,136 186.2,158.1 184.5,202.4 
		140.9,194.5 111.1,227.3 82.7,193.2 38.8,199.2 39,154.9 1.5,131.3 30.1,97.4 16.6,55.2 60.3,47.7 	"/>
</g>
</svg>
