<?xml version="1.0" encoding="utf-8"?>
<!-- Generator: Adobe Illustrator 21.0.2, SVG Export Plug-In . SVG Version: 6.00 Build 0)  -->
<svg version="1.1" id="Layer_1" xmlns="http://www.w3.org/2000/svg" xmlns:xlink="http://www.w3.org/1999/xlink" x="0px" y="0px"
	 viewBox="0 0 261.6 15.5" style="enable-background:new 0 0 261.6 15.5;" xml:space="preserve">
<style type="text/css">
	.st0{fill:none;stroke:#231F20;stroke-miterlimit:10;}
</style>
<g>
	<path class="st0" d="M232.4,7.8c0,0-0.1-3,2.9-3.6s6.4,2,5.1,6.6s-9.6,6.8-14.8-0.1c-5.1-6.9-14.1-10.1-29.3-10.1"/>
	<g>
		<path class="st0" d="M243.3,6.8c0,0,1.1-3.4,5.5-1.9s2.3,8.1-1.8,7.5c-2.5-0.5-1.8-2.9-1.2-3.2"/>
		<path class="st0" d="M251.3,7.1c0,0,2.9,1.8,5.3,0c2.4-1.8,0.8-5.9-2.3-4.5c-2.6,1.2-1.4,2.9-0.6,3"/>
	</g>
</g>
<g>
	<path class="st0" d="M29.3,7.8c0,0,0.1-3-2.9-3.6s-6.4,2-5.1,6.6s9.6,6.8,14.8-0.1s14-10.2,29.3-10.2"/>
	<g>
		<path class="st0" d="M18.5,6.8c0,0-1.1-3.4-5.5-1.9s-2.3,8.1,1.8,7.5c2.5-0.5,1.8-2.9,1.2-3.2"/>
		<path class="st0" d="M10.5,7.1c0,0-2.9,1.8-5.3,0S4.4,1.3,7.5,2.6c2.6,1.2,1.4,2.9,0.6,3"/>
	</g>
</g>
<path class="st0" d="M261.6,0.5"/>
<path class="st0" d="M0,0.5"/>
<line class="st0" x1="0" y1="0.5" x2="261.6" y2="0.5"/>
</svg>
