<?xml version="1.0" encoding="utf-8"?>
<!-- Generator: Adobe Illustrator 21.0.2, SVG Export Plug-In . SVG Version: 6.00 Build 0)  -->
<svg version="1.1" id="Layer_1" xmlns="http://www.w3.org/2000/svg" xmlns:xlink="http://www.w3.org/1999/xlink" x="0px" y="0px"
	 viewBox="0 0 261.6 15.5" style="enable-background:new 0 0 261.6 15.5;" xml:space="preserve">
<style type="text/css">
	.st0{fill:none;stroke:#231F20;stroke-miterlimit:10;}
</style>
<g>
	<path class="st0" d="M29.2,7.8c0,0,0.1,3-2.9,3.6s-6.4-2-5.1-6.6S30.8-2,35.9,4.9S50,15,65.2,15"/>
	<g>
		<path class="st0" d="M18.3,8.8c0,0-1.1,3.4-5.5,1.9s-2.3-8.1,1.8-7.5c2.5,0.5,1.8,2.9,1.2,3.2"/>
		<path class="st0" d="M10.4,8.4c0,0-2.9-1.8-5.3,0s-0.8,5.9,2.3,4.5C10,11.7,8.8,10,8,9.9"/>
	</g>
</g>
<g>
	<path class="st0" d="M232.3,7.8c0,0-0.1,3,2.9,3.6s6.4-2,5.1-6.6s-9.6-6.8-14.8,0.1c-5.1,6.9-14.1,10.1-29.3,10.1"/>
	<g>
		<path class="st0" d="M243.2,8.8c0,0,1.1,3.4,5.5,1.9s2.3-8.1-1.8-7.5c-2.5,0.5-1.8,2.9-1.2,3.2"/>
		<path class="st0" d="M251.1,8.4c0,0,2.9-1.8,5.3,0c2.4,1.8,0.8,5.9-2.3,4.5c-2.6-1.2-1.4-2.9-0.6-3"/>
	</g>
</g>
<line class="st0" x1="130.8" y1="15" x2="0" y2="15"/>
<line class="st0" x1="261.6" y1="15" x2="130.8" y2="15"/>
</svg>
